PathFileType	4	(X/Y/Z)	C:\Users\italobelli\Desktop\GitHub\PTbot_officialCBL\Personal_Results\SHRUG22_noisy2.trc
DataRate	CameraRate	NumFrames	NumMarkers	Units	OrigDataRate	OrigDataStartFrame	OrigNumFrames
110.888889	110.888889	25	9	m	110.888889	126	500
Frame#	Time		gu		centelbow		EpL		centpxt8		centijc7		ij		ts		aa		ai
			X1	Y1	Z1	X2	Y2	Z2	X3	Y3	Z3	X4	Y4	Z4	X5	Y5	Z5	X6	Y6	Z6	X7	Y7	Z7	X8	Y8	Z8	X9	Y9	Z9

126	1.1273	-0.093364	-0.0031271	0.16376	-0.12147	-0.24106	0.18605	-0.10861	-0.23522	0.2144	-0.046816	-0.15316	-0.008669	-0.046816	0.031938	-0.008669	0	0	0	-0.13605	0.032827	0.042877	-0.12098	0.032827	0.15841	-0.15736	-0.077385	0.05175
127	1.1363	-0.094256	-0.0017723	0.16346	-0.12171	-0.23939	0.18694	-0.1091	-0.23337	0.21531	-0.046816	-0.15316	-0.008669	-0.046816	0.031938	-0.008669	0	0	0	-0.13592	0.033074	0.042194	-0.12195	0.034033	0.15758	-0.15699	-0.077024	0.051824
128	1.1453	-0.095182	-0.00036382	0.16315	-0.12195	-0.23767	0.18786	-0.10961	-0.23145	0.21625	-0.046816	-0.15316	-0.008669	-0.046816	0.031938	-0.008669	0	0	0	-0.13577	0.033329	0.041484	-0.12297	0.035284	0.15672	-0.15661	-0.076652	0.051901
129	1.1543	-0.09614	0.001094	0.16283	-0.1222	-0.2359	0.18881	-0.11013	-0.22946	0.21723	-0.046816	-0.15316	-0.008669	-0.046816	0.031938	-0.008669	0	0	0	-0.13563	0.03359	0.040749	-0.12402	0.036578	0.15582	-0.1562	-0.076269	0.051981
130	1.1633	-0.097128	0.0025969	0.16249	-0.12244	-0.23408	0.18979	-0.11066	-0.22743	0.21823	-0.046816	-0.15316	-0.008669	-0.046816	0.031938	-0.008669	0	0	0	-0.13547	0.033857	0.03999	-0.1251	0.03791	0.1549	-0.15579	-0.075876	0.052064
131	1.1723	-0.098142	0.0041404	0.16215	-0.12269	-0.23221	0.1908	-0.1112	-0.22535	0.21926	-0.046816	-0.15316	-0.008669	-0.046816	0.031938	-0.008669	0	0	0	-0.13532	0.03413	0.039211	-0.12621	0.039277	0.15395	-0.15536	-0.075474	0.05215
132	1.1814	-0.09918	0.0057202	0.1618	-0.12295	-0.23031	0.19182	-0.11175	-0.22322	0.22031	-0.046816	-0.15316	-0.008669	-0.046816	0.031938	-0.008669	0	0	0	-0.13516	0.034408	0.038414	-0.12734	0.040674	0.15298	-0.15493	-0.075064	0.052238
133	1.1904	-0.10024	0.007332	0.16144	-0.1232	-0.22837	0.19287	-0.1123	-0.22106	0.22138	-0.046816	-0.15316	-0.008669	-0.046816	0.031938	-0.008669	0	0	0	-0.13499	0.034689	0.0376	-0.1285	0.042098	0.15199	-0.15448	-0.074648	0.052328
134	1.1994	-0.10132	0.0089715	0.16107	-0.12346	-0.22641	0.19393	-0.11286	-0.21886	0.22246	-0.046816	-0.15316	-0.008669	-0.046816	0.031938	-0.008669	0	0	0	-0.13482	0.034974	0.036771	-0.12967	0.043546	0.15098	-0.15402	-0.074226	0.052419
135	1.2084	-0.10241	0.010634	0.16069	-0.12371	-0.22442	0.195	-0.11342	-0.21664	0.22356	-0.046816	-0.15316	-0.008669	-0.046816	0.031938	-0.008669	0	0	0	-0.13465	0.035262	0.035931	-0.13086	0.045013	0.14995	-0.15356	-0.0738	0.052513
136	1.2174	-0.10351	0.012316	0.16031	-0.12397	-0.22242	0.19609	-0.11399	-0.2144	0.22467	-0.046816	-0.15316	-0.008669	-0.046816	0.031938	-0.008669	0	0	0	-0.13448	0.035551	0.035081	-0.13206	0.046495	0.14891	-0.15309	-0.073369	0.052607
137	1.2265	-0.10462	0.014012	0.15993	-0.12422	-0.2204	0.19718	-0.11456	-0.21214	0.22579	-0.046816	-0.15316	-0.008669	-0.046816	0.031938	-0.008669	0	0	0	-0.1343	0.035842	0.034223	-0.13327	0.04799	0.14787	-0.15262	-0.072936	0.052703
138	1.2355	-0.10574	0.015718	0.15954	-0.12448	-0.21838	0.19827	-0.11513	-0.20987	0.22692	-0.046816	-0.15316	-0.008669	-0.046816	0.031938	-0.008669	0	0	0	-0.13413	0.036134	0.03336	-0.13449	0.049493	0.14681	-0.15214	-0.072502	0.052799
139	1.2445	-0.10687	0.017431	0.15915	-0.12473	-0.21635	0.19937	-0.11569	-0.2076	0.22804	-0.046816	-0.15316	-0.008669	-0.046816	0.031938	-0.008669	0	0	0	-0.13395	0.036426	0.032493	-0.13571	0.051001	0.14575	-0.15166	-0.072067	0.052896
140	1.2535	-0.10799	0.019144	0.15876	-0.12498	-0.21433	0.20047	-0.11626	-0.20533	0.22917	-0.046816	-0.15316	-0.008669	-0.046816	0.031938	-0.008669	0	0	0	-0.13377	0.036718	0.031625	-0.13693	0.052509	0.14469	-0.15118	-0.071633	0.052994
141	1.2625	-0.10912	0.020855	0.15837	-0.12523	-0.21231	0.20157	-0.11682	-0.20307	0.23029	-0.046816	-0.15316	-0.008669	-0.046816	0.031938	-0.008669	0	0	0	-0.1336	0.037008	0.030758	-0.13815	0.054014	0.14363	-0.1507	-0.0712	0.053091
142	1.2715	-0.11023	0.022559	0.15797	-0.12548	-0.2103	0.20266	-0.11738	-0.20083	0.23141	-0.046816	-0.15316	-0.008669	-0.046816	0.031938	-0.008669	0	0	0	-0.13342	0.037296	0.029894	-0.13936	0.055513	0.14257	-0.15022	-0.07077	0.053188
143	1.2806	-0.11134	0.024251	0.15758	-0.12572	-0.20831	0.20374	-0.11794	-0.1986	0.23251	-0.046816	-0.15316	-0.008669	-0.046816	0.031938	-0.008669	0	0	0	-0.13324	0.037582	0.029035	-0.14057	0.057001	0.14152	-0.14974	-0.070343	0.053285
144	1.2896	-0.11244	0.025928	0.15719	-0.12596	-0.20635	0.20481	-0.11848	-0.19639	0.23361	-0.046816	-0.15316	-0.008669	-0.046816	0.031938	-0.008669	0	0	0	-0.13307	0.037865	0.028184	-0.14176	0.058475	0.14047	-0.14927	-0.069921	0.053381
145	1.2986	-0.11353	0.027584	0.15681	-0.1262	-0.20441	0.20587	-0.11902	-0.19422	0.23469	-0.046816	-0.15316	-0.008669	-0.046816	0.031938	-0.008669	0	0	0	-0.1329	0.038143	0.027342	-0.14293	0.059931	0.13944	-0.1488	-0.069505	0.053477
146	1.3076	-0.1146	0.029216	0.15643	-0.12643	-0.2025	0.2069	-0.11955	-0.19208	0.23576	-0.046816	-0.15316	-0.008669	-0.046816	0.031938	-0.008669	0	0	0	-0.13272	0.038417	0.026512	-0.14409	0.061365	0.13842	-0.14834	-0.069096	0.053571
147	1.3166	-0.11565	0.030818	0.15605	-0.12666	-0.20063	0.20792	-0.12007	-0.18998	0.2368	-0.046816	-0.15316	-0.008669	-0.046816	0.031938	-0.008669	0	0	0	-0.13256	0.038687	0.025696	-0.14523	0.062774	0.13742	-0.14789	-0.068694	0.053664
148	1.3257	-0.11668	0.032388	0.15568	-0.12688	-0.1988	0.20892	-0.12058	-0.18793	0.23782	-0.046816	-0.15316	-0.008669	-0.046816	0.031938	-0.008669	0	0	0	-0.13239	0.03895	0.024896	-0.14635	0.064153	0.13644	-0.14745	-0.068301	0.053755
149	1.3347	-0.11768	0.03392	0.15532	-0.12709	-0.19702	0.20989	-0.12107	-0.18594	0.23882	-0.046816	-0.15316	-0.008669	-0.046816	0.031938	-0.008669	0	0	0	-0.13223	0.039207	0.024114	-0.14743	0.0655	0.13548	-0.14701	-0.067918	0.053844
150	1.3437	-0.11866	0.03541	0.15496	-0.1273	-0.19529	0.21083	-0.12155	-0.184	0.23978	-0.046816	-0.15316	-0.008669	-0.046816	0.031938	-0.008669	0	0	0	-0.13207	0.039456	0.023353	-0.14849	0.06681	0.13455	-0.14659	-0.067546	0.053931
